It's Complicated.2009.1080p.BluRay.mkv
**************************************

TiTLE......  It's Complicated
YEAR.......  2009
GENRE......  Comedy | Romance 
iMDB RATE..  User Rating: 6.8/10 (11,062 votes)
iMDB URL...  http://www.imdb.com/title/tt1230414/ 
*************************************************

Video
Duration                         : 2h 0mn
Bit rate                         : 6 202 Kbps
Width                            : 1 920 pixels
Height                           : 1 032 pixels
Display aspect ratio             : 1.860
Frame rate                       : 23.976 fps
Stream size                      : 5.08 GiB (78%)

Audio
Format                           : DTS
Format/Info                      : Digital Theater Systems
Bit rate                         : 1 510 Kbps
Channel(s)                       : 6 channels
Channel positions                : Front: L C R, Surround: L R, LFE
Sampling rate                    : 48.0 KHz
Resolution                       : 24 bits
Stream size                      : 1.27 GiB (20%)
Language                         : English

Subtitles; English
******************
